<mxfile modified="2022-05-08T23:19:15.102Z" host="app.diagrams.net" agent="5.0 (Windows NT 10.0; Win64; x64) AppleWebKit/537.36 (KHTML, like Gecko) Chrome/101.0.4951.54 Safari/537.36 Edg/101.0.1210.39" etag="INQJCChSaIKt66yVsds3" compressed="false" version="18.0.2" type="google">
  <diagram id="fF0HOrGiVqz4iO8XVd2Q" name="Disestablishment/Candidate Export Protocols">
    <mxGraphModel grid="1" page="1" gridSize="10" guides="1" tooltips="1" connect="1" arrows="1" fold="1" pageScale="1" pageWidth="827" pageHeight="1169" math="0" shadow="0">
      <root>
        <mxCell id="grzf9fgfFzJlJSI0Qqgz-0" />
        <mxCell id="grzf9fgfFzJlJSI0Qqgz-1" value="About" parent="grzf9fgfFzJlJSI0Qqgz-0" />
        <mxCell id="grzf9fgfFzJlJSI0Qqgz-2" value="TItle/Page" visible="0" parent="grzf9fgfFzJlJSI0Qqgz-0" />
        <mxCell id="grzf9fgfFzJlJSI0Qqgz-5" value="" style="group;fontSize=10;" vertex="1" connectable="0" parent="grzf9fgfFzJlJSI0Qqgz-2">
          <mxGeometry x="120" y="120" width="560" height="45" as="geometry" />
        </mxCell>
        <mxCell id="grzf9fgfFzJlJSI0Qqgz-6" value="&lt;font style=&quot;font-size: 10px&quot;&gt;&lt;span style=&quot;font-size: 11px&quot;&gt;Base Logical Module -&amp;nbsp;&lt;/span&gt;Disestablishment - Common Formats to consider&lt;/font&gt;" style="text;strokeColor=none;fillColor=none;html=1;fontSize=10;fontStyle=1;verticalAlign=middle;align=left;shadow=0;glass=0;comic=0;opacity=30;fontColor=#808080;" vertex="1" parent="grzf9fgfFzJlJSI0Qqgz-5">
          <mxGeometry width="560" height="40" as="geometry" />
        </mxCell>
        <mxCell id="grzf9fgfFzJlJSI0Qqgz-7" value="" style="line;strokeWidth=2;html=1;shadow=0;glass=0;comic=0;fillColor=none;fontSize=10;fontColor=#CCCCCC;labelBackgroundColor=none;strokeColor=#CCCCCC;" vertex="1" parent="grzf9fgfFzJlJSI0Qqgz-5">
          <mxGeometry y="35" width="560" height="10" as="geometry" />
        </mxCell>
        <mxCell id="3yi9NYUl1jsoUbtsiezh-0" value="Title/Diagram" parent="grzf9fgfFzJlJSI0Qqgz-0" />
        <mxCell id="3yi9NYUl1jsoUbtsiezh-1" value="&lt;font style=&quot;font-size: 12px&quot;&gt;&lt;span&gt;Diagram: &lt;/span&gt;Disestablishment - Export - Common Formats to consider&lt;/font&gt;" style="text;strokeColor=none;fillColor=none;html=1;fontSize=10;fontStyle=2;verticalAlign=middle;align=left;shadow=0;glass=0;comic=0;opacity=30;fontColor=#808080;" vertex="1" parent="3yi9NYUl1jsoUbtsiezh-0">
          <mxGeometry x="120" y="480" width="520" height="20" as="geometry" />
        </mxCell>
        <mxCell id="grzf9fgfFzJlJSI0Qqgz-3" value="Legend" parent="grzf9fgfFzJlJSI0Qqgz-0" />
        <mxCell id="grzf9fgfFzJlJSI0Qqgz-4" value="Boxes" style="" parent="grzf9fgfFzJlJSI0Qqgz-0" />
        <UserObject label="CSV" link="https://en.wikipedia.org/wiki/Comma-separated_values" id="grzf9fgfFzJlJSI0Qqgz-19">
          <mxCell style="shape=ext;rounded=0;html=1;whiteSpace=wrap;fontSize=10;" vertex="1" parent="grzf9fgfFzJlJSI0Qqgz-4">
            <mxGeometry x="120" y="280" width="80" height="38" as="geometry" />
          </mxCell>
        </UserObject>
        <UserObject label="XML" link="https://en.wikipedia.org/wiki/XML" id="grzf9fgfFzJlJSI0Qqgz-23">
          <mxCell style="shape=ext;rounded=0;html=1;whiteSpace=wrap;fontSize=10;" vertex="1" parent="grzf9fgfFzJlJSI0Qqgz-4">
            <mxGeometry x="300" y="280" width="80" height="38" as="geometry" />
          </mxCell>
        </UserObject>
        <UserObject label="JSON" link="https://en.wikipedia.org/wiki/JSON" id="grzf9fgfFzJlJSI0Qqgz-24">
          <mxCell style="shape=ext;rounded=0;html=1;whiteSpace=wrap;fontSize=10;" vertex="1" parent="grzf9fgfFzJlJSI0Qqgz-4">
            <mxGeometry x="390" y="280" width="80" height="38" as="geometry" />
          </mxCell>
        </UserObject>
        <UserObject label="SOAP" link="https://en.wikipedia.org/wiki/SOAP" id="grzf9fgfFzJlJSI0Qqgz-27">
          <mxCell style="shape=ext;rounded=0;html=1;whiteSpace=wrap;fontSize=10;" vertex="1" parent="grzf9fgfFzJlJSI0Qqgz-4">
            <mxGeometry x="300" y="380" width="80" height="38" as="geometry" />
          </mxCell>
        </UserObject>
        <UserObject label="Graph Modelling Language (GML)" link="https://en.wikipedia.org/wiki/Graph_Modelling_Language" id="grzf9fgfFzJlJSI0Qqgz-28">
          <mxCell style="shape=ext;rounded=0;html=1;whiteSpace=wrap;fontSize=10;" vertex="1" parent="grzf9fgfFzJlJSI0Qqgz-4">
            <mxGeometry x="210" y="380" width="80" height="38" as="geometry" />
          </mxCell>
        </UserObject>
        <UserObject label="GraphML" link="https://en.wikipedia.org/wiki/GraphML" id="grzf9fgfFzJlJSI0Qqgz-29">
          <mxCell style="shape=ext;rounded=0;html=1;whiteSpace=wrap;fontSize=10;" vertex="1" parent="grzf9fgfFzJlJSI0Qqgz-4">
            <mxGeometry x="300" y="430" width="80" height="38" as="geometry" />
          </mxCell>
        </UserObject>
        <UserObject label="GraphViz (DOT)" link="https://en.wikipedia.org/wiki/DOT_(graph_description_language)" id="grzf9fgfFzJlJSI0Qqgz-30">
          <mxCell style="shape=ext;rounded=0;html=1;whiteSpace=wrap;fontSize=10;" vertex="1" parent="grzf9fgfFzJlJSI0Qqgz-4">
            <mxGeometry x="210" y="430" width="80" height="38" as="geometry" />
          </mxCell>
        </UserObject>
        <UserObject label="XLSX" link="https://en.wikipedia.org/wiki/Microsoft_Excel" id="grzf9fgfFzJlJSI0Qqgz-31">
          <mxCell style="shape=ext;rounded=0;html=1;whiteSpace=wrap;fontSize=10;" vertex="1" parent="grzf9fgfFzJlJSI0Qqgz-4">
            <mxGeometry x="300" y="330" width="80" height="38" as="geometry" />
          </mxCell>
        </UserObject>
        <UserObject label="Trviail Graph Format&amp;nbsp;&lt;br&gt;(TGF)" link="https://en.wikipedia.org/wiki/Trivial_Graph_Format" id="grzf9fgfFzJlJSI0Qqgz-33">
          <mxCell style="shape=ext;rounded=0;html=1;whiteSpace=wrap;fontSize=10;" vertex="1" parent="grzf9fgfFzJlJSI0Qqgz-4">
            <mxGeometry x="210" y="330" width="80" height="38" as="geometry" />
          </mxCell>
        </UserObject>
        <UserObject label="ASCII" link="https://en.wikipedia.org/wiki/ASCII" id="grzf9fgfFzJlJSI0Qqgz-35">
          <mxCell style="shape=ext;rounded=0;html=1;whiteSpace=wrap;fontSize=10;" vertex="1" parent="grzf9fgfFzJlJSI0Qqgz-4">
            <mxGeometry x="210" y="280" width="80" height="38" as="geometry" />
          </mxCell>
        </UserObject>
        <UserObject label="GraphQL" link="https://graphql.org/learn/" id="grzf9fgfFzJlJSI0Qqgz-36">
          <mxCell style="shape=ext;rounded=0;html=1;whiteSpace=wrap;fontSize=10;movable=1;resizable=1;rotatable=1;deletable=1;editable=1;connectable=1;" vertex="1" parent="grzf9fgfFzJlJSI0Qqgz-4">
            <mxGeometry x="390" y="330" width="80" height="38" as="geometry" />
          </mxCell>
        </UserObject>
        <UserObject label="ODATA" link="https://www.odata.org/" id="grzf9fgfFzJlJSI0Qqgz-37">
          <mxCell style="shape=ext;rounded=0;html=1;whiteSpace=wrap;fontSize=10;" vertex="1" parent="grzf9fgfFzJlJSI0Qqgz-4">
            <mxGeometry x="390" y="380" width="80" height="38" as="geometry" />
          </mxCell>
        </UserObject>
        <UserObject label="TSV" link="https://en.wikipedia.org/wiki/Tab-separated_values" id="grzf9fgfFzJlJSI0Qqgz-38">
          <mxCell style="shape=ext;rounded=0;html=1;whiteSpace=wrap;fontSize=10;" vertex="1" parent="grzf9fgfFzJlJSI0Qqgz-4">
            <mxGeometry x="120" y="330" width="80" height="38" as="geometry" />
          </mxCell>
        </UserObject>
        <UserObject label="Fielded Text" link="http://www.fieldedtext.org/" id="grzf9fgfFzJlJSI0Qqgz-39">
          <mxCell style="shape=ext;rounded=0;html=1;whiteSpace=wrap;fontSize=10;" vertex="1" parent="grzf9fgfFzJlJSI0Qqgz-4">
            <mxGeometry x="120" y="380" width="80" height="38" as="geometry" />
          </mxCell>
        </UserObject>
        <UserObject label="vCard" link="https://en.wikipedia.org/wiki/VCard" id="grzf9fgfFzJlJSI0Qqgz-40">
          <mxCell style="shape=ext;rounded=0;html=1;whiteSpace=wrap;fontSize=10;" vertex="1" parent="grzf9fgfFzJlJSI0Qqgz-4">
            <mxGeometry x="480" y="280" width="80" height="38" as="geometry" />
          </mxCell>
        </UserObject>
        <UserObject label="iCalendar" link="https://en.wikipedia.org/wiki/ICalendar" id="grzf9fgfFzJlJSI0Qqgz-41">
          <mxCell style="shape=ext;rounded=0;html=1;whiteSpace=wrap;fontSize=10;" vertex="1" parent="grzf9fgfFzJlJSI0Qqgz-4">
            <mxGeometry x="480" y="380" width="80" height="38" as="geometry" />
          </mxCell>
        </UserObject>
        <UserObject label="vCalendar" link="http://fileformats.archiveteam.org/wiki/VCalendar" id="grzf9fgfFzJlJSI0Qqgz-42">
          <mxCell style="shape=ext;rounded=0;html=1;whiteSpace=wrap;fontSize=10;" vertex="1" parent="grzf9fgfFzJlJSI0Qqgz-4">
            <mxGeometry x="480" y="330" width="80" height="38" as="geometry" />
          </mxCell>
        </UserObject>
        <UserObject label="PNG" link="https://en.wikipedia.org/wiki/Portable_Network_Graphics" id="grzf9fgfFzJlJSI0Qqgz-44">
          <mxCell style="shape=ext;rounded=0;html=1;whiteSpace=wrap;fontSize=10;" vertex="1" parent="grzf9fgfFzJlJSI0Qqgz-4">
            <mxGeometry x="570" y="280" width="80" height="38" as="geometry" />
          </mxCell>
        </UserObject>
        <UserObject label="Open source&lt;br&gt;Audio/Video Codecs" link="https://en.wikipedia.org/wiki/List_of_open-source_codecs" id="grzf9fgfFzJlJSI0Qqgz-45">
          <mxCell style="shape=ext;rounded=0;html=1;whiteSpace=wrap;fontSize=10;" vertex="1" parent="grzf9fgfFzJlJSI0Qqgz-4">
            <mxGeometry x="570" y="330" width="80" height="38" as="geometry" />
          </mxCell>
        </UserObject>
      </root>
    </mxGraphModel>
  </diagram>
</mxfile>
